G75*
%MOIN*%
%OFA0B0*%
%FSLAX25Y25*%
%IPPOS*%
%LPD*%
%AMOC8*
5,1,8,0,0,1.08239X$1,22.5*
%
%ADD10C,0.00200*%
%ADD11C,0.00000*%
D10*
X0007139Y0006452D02*
X0023169Y0006452D01*
X0023164Y0006446D02*
X0023231Y0058499D01*
X0023243Y0058575D01*
X0023260Y0058651D01*
X0023280Y0058725D01*
X0023304Y0058799D01*
X0023332Y0058871D01*
X0023363Y0058942D01*
X0023398Y0059011D01*
X0023436Y0059079D01*
X0023478Y0059144D01*
X0023523Y0059207D01*
X0023571Y0059268D01*
X0023622Y0059326D01*
X0023676Y0059381D01*
X0023733Y0059434D01*
X0023792Y0059484D01*
X0023854Y0059531D01*
X0023918Y0059574D01*
X0023984Y0059614D01*
X0024053Y0059651D01*
X0024123Y0059685D01*
X0024194Y0059714D01*
X0024267Y0059740D01*
X0024341Y0059763D01*
X0024416Y0059781D01*
X0024493Y0059796D01*
X0024569Y0059807D01*
X0024646Y0059814D01*
X0024724Y0059817D01*
X0024801Y0059816D01*
X0024879Y0059811D01*
X0024956Y0059802D01*
X0024950Y0059801D02*
X0033087Y0059799D01*
X0033062Y0059803D02*
X0033151Y0059807D01*
X0033241Y0059806D01*
X0033330Y0059802D01*
X0033419Y0059794D01*
X0033508Y0059782D01*
X0033596Y0059766D01*
X0033683Y0059747D01*
X0033769Y0059723D01*
X0033854Y0059696D01*
X0033938Y0059666D01*
X0034021Y0059631D01*
X0034102Y0059593D01*
X0034181Y0059552D01*
X0034258Y0059507D01*
X0034333Y0059458D01*
X0034406Y0059407D01*
X0034477Y0059352D01*
X0034545Y0059295D01*
X0034611Y0059234D01*
X0034674Y0059171D01*
X0034734Y0059105D01*
X0034792Y0059036D01*
X0034846Y0058965D01*
X0034897Y0058891D01*
X0034945Y0058816D01*
X0034989Y0058738D01*
X0035030Y0058659D01*
X0035068Y0058578D01*
X0035102Y0058495D01*
X0035132Y0058411D01*
X0035159Y0058326D01*
X0035182Y0058239D01*
X0035201Y0058152D01*
X0035216Y0058064D01*
X0035227Y0057975D01*
X0035235Y0057886D01*
X0035201Y0006565D01*
X0035202Y0006565D02*
X0119531Y0006905D01*
X0119534Y0006905D02*
X0119427Y0026460D01*
X0119429Y0026459D02*
X0101408Y0026325D01*
X0101537Y0026337D02*
X0101435Y0026332D01*
X0101334Y0026331D01*
X0101233Y0026334D01*
X0101132Y0026340D01*
X0101031Y0026351D01*
X0100931Y0026365D01*
X0100831Y0026383D01*
X0100732Y0026405D01*
X0100634Y0026430D01*
X0100537Y0026460D01*
X0100441Y0026493D01*
X0100347Y0026530D01*
X0100254Y0026570D01*
X0100162Y0026614D01*
X0100073Y0026661D01*
X0099985Y0026712D01*
X0099899Y0026766D01*
X0099816Y0026823D01*
X0099734Y0026883D01*
X0099655Y0026947D01*
X0099579Y0027013D01*
X0099505Y0027083D01*
X0099434Y0027155D01*
X0099365Y0027230D01*
X0099300Y0027307D01*
X0099238Y0027387D01*
X0099178Y0027469D01*
X0099122Y0027553D01*
X0099069Y0027640D01*
X0099020Y0027728D01*
X0098974Y0027818D01*
X0098931Y0027910D01*
X0098892Y0028004D01*
X0098857Y0028099D01*
X0098825Y0028195D01*
X0098797Y0028292D01*
X0098773Y0028391D01*
X0098752Y0028490D01*
X0098735Y0028590D01*
X0098722Y0028690D01*
X0098713Y0028791D01*
X0098712Y0028794D02*
X0096565Y0030344D01*
X0090592Y0030344D01*
X0078779Y0018497D01*
X0078242Y0019068D01*
X0074584Y0022726D01*
X0074450Y0023162D01*
X0074451Y0023163D02*
X0084350Y0033532D01*
X0086263Y0037895D01*
X0086296Y0048566D01*
X0096532Y0048533D01*
X0101069Y0048535D01*
X0101061Y0048532D02*
X0107339Y0048579D01*
X0107334Y0048579D02*
X0107397Y0048594D01*
X0107461Y0048606D01*
X0107526Y0048615D01*
X0107591Y0048619D01*
X0107656Y0048620D01*
X0107721Y0048617D01*
X0107786Y0048610D01*
X0107850Y0048599D01*
X0107913Y0048585D01*
X0107976Y0048567D01*
X0108037Y0048546D01*
X0108097Y0048520D01*
X0108156Y0048492D01*
X0108213Y0048460D01*
X0108267Y0048425D01*
X0108320Y0048387D01*
X0108370Y0048345D01*
X0108418Y0048301D01*
X0108463Y0048254D01*
X0108506Y0048205D01*
X0108545Y0048153D01*
X0108582Y0048099D01*
X0108615Y0048043D01*
X0108645Y0047985D01*
X0108671Y0047926D01*
X0108694Y0047865D01*
X0108714Y0047803D01*
X0108711Y0047810D02*
X0108714Y0037240D01*
X0119623Y0037292D01*
X0119623Y0037293D02*
X0119529Y0144834D01*
X0119528Y0144834D02*
X0006889Y0144555D01*
X0006890Y0144557D02*
X0007149Y0039040D01*
X0007149Y0039045D02*
X0007226Y0039052D01*
X0007303Y0039055D01*
X0007380Y0039054D01*
X0007457Y0039050D01*
X0007533Y0039042D01*
X0007610Y0039030D01*
X0007685Y0039014D01*
X0007760Y0038995D01*
X0007833Y0038972D01*
X0007906Y0038945D01*
X0007976Y0038915D01*
X0008046Y0038882D01*
X0008114Y0038845D01*
X0008179Y0038805D01*
X0008243Y0038761D01*
X0008305Y0038715D01*
X0008364Y0038666D01*
X0008420Y0038614D01*
X0008475Y0038559D01*
X0008526Y0038501D01*
X0008574Y0038441D01*
X0008620Y0038379D01*
X0008662Y0038315D01*
X0008701Y0038248D01*
X0008737Y0038180D01*
X0008769Y0038110D01*
X0008798Y0038039D01*
X0008824Y0037966D01*
X0008845Y0037892D01*
X0008864Y0037817D01*
X0008878Y0037741D01*
X0008889Y0037665D01*
X0008889Y0031065D01*
X0008891Y0030980D01*
X0008889Y0030896D01*
X0008884Y0030811D01*
X0008874Y0030727D01*
X0008861Y0030644D01*
X0008844Y0030561D01*
X0008823Y0030479D01*
X0008798Y0030398D01*
X0008769Y0030318D01*
X0008737Y0030240D01*
X0008701Y0030163D01*
X0008662Y0030088D01*
X0008619Y0030015D01*
X0008573Y0029944D01*
X0008524Y0029875D01*
X0008472Y0029809D01*
X0008416Y0029745D01*
X0008358Y0029683D01*
X0008297Y0029625D01*
X0008234Y0029569D01*
X0008167Y0029516D01*
X0008099Y0029467D01*
X0008028Y0029420D01*
X0007955Y0029377D01*
X0007880Y0029337D01*
X0007804Y0029301D01*
X0007726Y0029269D01*
X0007646Y0029240D01*
X0007566Y0029214D01*
X0007484Y0029193D01*
X0007401Y0029175D01*
X0007317Y0029161D01*
X0007233Y0029151D01*
X0007149Y0029145D01*
X0007119Y0029145D01*
X0007123Y0029141D02*
X0007162Y0006458D01*
X0007154Y0029160D02*
X0007183Y0029160D01*
D11*
X0021234Y0035880D02*
X0021236Y0035968D01*
X0021242Y0036056D01*
X0021252Y0036144D01*
X0021266Y0036232D01*
X0021283Y0036318D01*
X0021305Y0036404D01*
X0021330Y0036488D01*
X0021360Y0036572D01*
X0021392Y0036654D01*
X0021429Y0036734D01*
X0021469Y0036813D01*
X0021513Y0036890D01*
X0021560Y0036965D01*
X0021610Y0037037D01*
X0021664Y0037108D01*
X0021720Y0037175D01*
X0021780Y0037241D01*
X0021842Y0037303D01*
X0021908Y0037363D01*
X0021975Y0037419D01*
X0022046Y0037473D01*
X0022118Y0037523D01*
X0022193Y0037570D01*
X0022270Y0037614D01*
X0022349Y0037654D01*
X0022429Y0037691D01*
X0022511Y0037723D01*
X0022595Y0037753D01*
X0022679Y0037778D01*
X0022765Y0037800D01*
X0022851Y0037817D01*
X0022939Y0037831D01*
X0023027Y0037841D01*
X0023115Y0037847D01*
X0023203Y0037849D01*
X0023291Y0037847D01*
X0023379Y0037841D01*
X0023467Y0037831D01*
X0023555Y0037817D01*
X0023641Y0037800D01*
X0023727Y0037778D01*
X0023811Y0037753D01*
X0023895Y0037723D01*
X0023977Y0037691D01*
X0024057Y0037654D01*
X0024136Y0037614D01*
X0024213Y0037570D01*
X0024288Y0037523D01*
X0024360Y0037473D01*
X0024431Y0037419D01*
X0024498Y0037363D01*
X0024564Y0037303D01*
X0024626Y0037241D01*
X0024686Y0037175D01*
X0024742Y0037108D01*
X0024796Y0037037D01*
X0024846Y0036965D01*
X0024893Y0036890D01*
X0024937Y0036813D01*
X0024977Y0036734D01*
X0025014Y0036654D01*
X0025046Y0036572D01*
X0025076Y0036488D01*
X0025101Y0036404D01*
X0025123Y0036318D01*
X0025140Y0036232D01*
X0025154Y0036144D01*
X0025164Y0036056D01*
X0025170Y0035968D01*
X0025172Y0035880D01*
X0025170Y0035792D01*
X0025164Y0035704D01*
X0025154Y0035616D01*
X0025140Y0035528D01*
X0025123Y0035442D01*
X0025101Y0035356D01*
X0025076Y0035272D01*
X0025046Y0035188D01*
X0025014Y0035106D01*
X0024977Y0035026D01*
X0024937Y0034947D01*
X0024893Y0034870D01*
X0024846Y0034795D01*
X0024796Y0034723D01*
X0024742Y0034652D01*
X0024686Y0034585D01*
X0024626Y0034519D01*
X0024564Y0034457D01*
X0024498Y0034397D01*
X0024431Y0034341D01*
X0024360Y0034287D01*
X0024288Y0034237D01*
X0024213Y0034190D01*
X0024136Y0034146D01*
X0024057Y0034106D01*
X0023977Y0034069D01*
X0023895Y0034037D01*
X0023811Y0034007D01*
X0023727Y0033982D01*
X0023641Y0033960D01*
X0023555Y0033943D01*
X0023467Y0033929D01*
X0023379Y0033919D01*
X0023291Y0033913D01*
X0023203Y0033911D01*
X0023115Y0033913D01*
X0023027Y0033919D01*
X0022939Y0033929D01*
X0022851Y0033943D01*
X0022765Y0033960D01*
X0022679Y0033982D01*
X0022595Y0034007D01*
X0022511Y0034037D01*
X0022429Y0034069D01*
X0022349Y0034106D01*
X0022270Y0034146D01*
X0022193Y0034190D01*
X0022118Y0034237D01*
X0022046Y0034287D01*
X0021975Y0034341D01*
X0021908Y0034397D01*
X0021842Y0034457D01*
X0021780Y0034519D01*
X0021720Y0034585D01*
X0021664Y0034652D01*
X0021610Y0034723D01*
X0021560Y0034795D01*
X0021513Y0034870D01*
X0021469Y0034947D01*
X0021429Y0035026D01*
X0021392Y0035106D01*
X0021360Y0035188D01*
X0021330Y0035272D01*
X0021305Y0035356D01*
X0021283Y0035442D01*
X0021266Y0035528D01*
X0021252Y0035616D01*
X0021242Y0035704D01*
X0021236Y0035792D01*
X0021234Y0035880D01*
X0087502Y0056126D02*
X0087504Y0056257D01*
X0087510Y0056389D01*
X0087520Y0056520D01*
X0087534Y0056651D01*
X0087552Y0056781D01*
X0087574Y0056910D01*
X0087599Y0057039D01*
X0087629Y0057167D01*
X0087663Y0057294D01*
X0087700Y0057421D01*
X0087741Y0057545D01*
X0087786Y0057669D01*
X0087835Y0057791D01*
X0087887Y0057912D01*
X0087943Y0058030D01*
X0088003Y0058148D01*
X0088066Y0058263D01*
X0088133Y0058376D01*
X0088203Y0058488D01*
X0088276Y0058597D01*
X0088352Y0058703D01*
X0088432Y0058808D01*
X0088515Y0058910D01*
X0088601Y0059009D01*
X0088690Y0059106D01*
X0088782Y0059200D01*
X0088877Y0059291D01*
X0088974Y0059380D01*
X0089074Y0059465D01*
X0089177Y0059547D01*
X0089282Y0059626D01*
X0089389Y0059702D01*
X0089499Y0059774D01*
X0089611Y0059843D01*
X0089725Y0059909D01*
X0089840Y0059971D01*
X0089958Y0060030D01*
X0090077Y0060085D01*
X0090198Y0060137D01*
X0090321Y0060184D01*
X0090445Y0060228D01*
X0090570Y0060269D01*
X0090696Y0060305D01*
X0090824Y0060338D01*
X0090952Y0060366D01*
X0091081Y0060391D01*
X0091211Y0060412D01*
X0091341Y0060429D01*
X0091472Y0060442D01*
X0091603Y0060451D01*
X0091734Y0060456D01*
X0091866Y0060457D01*
X0091997Y0060454D01*
X0092129Y0060447D01*
X0092260Y0060436D01*
X0092390Y0060421D01*
X0092520Y0060402D01*
X0092650Y0060379D01*
X0092778Y0060353D01*
X0092906Y0060322D01*
X0093033Y0060287D01*
X0093159Y0060249D01*
X0093283Y0060207D01*
X0093407Y0060161D01*
X0093528Y0060111D01*
X0093648Y0060058D01*
X0093767Y0060001D01*
X0093884Y0059941D01*
X0093998Y0059877D01*
X0094111Y0059809D01*
X0094222Y0059738D01*
X0094331Y0059664D01*
X0094437Y0059587D01*
X0094541Y0059506D01*
X0094642Y0059423D01*
X0094741Y0059336D01*
X0094837Y0059246D01*
X0094930Y0059153D01*
X0095021Y0059058D01*
X0095108Y0058960D01*
X0095193Y0058859D01*
X0095274Y0058756D01*
X0095352Y0058650D01*
X0095427Y0058542D01*
X0095499Y0058432D01*
X0095567Y0058320D01*
X0095632Y0058206D01*
X0095693Y0058089D01*
X0095751Y0057971D01*
X0095805Y0057851D01*
X0095856Y0057730D01*
X0095903Y0057607D01*
X0095946Y0057483D01*
X0095985Y0057358D01*
X0096021Y0057231D01*
X0096052Y0057103D01*
X0096080Y0056975D01*
X0096104Y0056846D01*
X0096124Y0056716D01*
X0096140Y0056585D01*
X0096152Y0056454D01*
X0096160Y0056323D01*
X0096164Y0056192D01*
X0096164Y0056060D01*
X0096160Y0055929D01*
X0096152Y0055798D01*
X0096140Y0055667D01*
X0096124Y0055536D01*
X0096104Y0055406D01*
X0096080Y0055277D01*
X0096052Y0055149D01*
X0096021Y0055021D01*
X0095985Y0054894D01*
X0095946Y0054769D01*
X0095903Y0054645D01*
X0095856Y0054522D01*
X0095805Y0054401D01*
X0095751Y0054281D01*
X0095693Y0054163D01*
X0095632Y0054046D01*
X0095567Y0053932D01*
X0095499Y0053820D01*
X0095427Y0053710D01*
X0095352Y0053602D01*
X0095274Y0053496D01*
X0095193Y0053393D01*
X0095108Y0053292D01*
X0095021Y0053194D01*
X0094930Y0053099D01*
X0094837Y0053006D01*
X0094741Y0052916D01*
X0094642Y0052829D01*
X0094541Y0052746D01*
X0094437Y0052665D01*
X0094331Y0052588D01*
X0094222Y0052514D01*
X0094111Y0052443D01*
X0093999Y0052375D01*
X0093884Y0052311D01*
X0093767Y0052251D01*
X0093648Y0052194D01*
X0093528Y0052141D01*
X0093407Y0052091D01*
X0093283Y0052045D01*
X0093159Y0052003D01*
X0093033Y0051965D01*
X0092906Y0051930D01*
X0092778Y0051899D01*
X0092650Y0051873D01*
X0092520Y0051850D01*
X0092390Y0051831D01*
X0092260Y0051816D01*
X0092129Y0051805D01*
X0091997Y0051798D01*
X0091866Y0051795D01*
X0091734Y0051796D01*
X0091603Y0051801D01*
X0091472Y0051810D01*
X0091341Y0051823D01*
X0091211Y0051840D01*
X0091081Y0051861D01*
X0090952Y0051886D01*
X0090824Y0051914D01*
X0090696Y0051947D01*
X0090570Y0051983D01*
X0090445Y0052024D01*
X0090321Y0052068D01*
X0090198Y0052115D01*
X0090077Y0052167D01*
X0089958Y0052222D01*
X0089840Y0052281D01*
X0089725Y0052343D01*
X0089611Y0052409D01*
X0089499Y0052478D01*
X0089389Y0052550D01*
X0089282Y0052626D01*
X0089177Y0052705D01*
X0089074Y0052787D01*
X0088974Y0052872D01*
X0088877Y0052961D01*
X0088782Y0053052D01*
X0088690Y0053146D01*
X0088601Y0053243D01*
X0088515Y0053342D01*
X0088432Y0053444D01*
X0088352Y0053549D01*
X0088276Y0053655D01*
X0088203Y0053764D01*
X0088133Y0053876D01*
X0088066Y0053989D01*
X0088003Y0054104D01*
X0087943Y0054222D01*
X0087887Y0054340D01*
X0087835Y0054461D01*
X0087786Y0054583D01*
X0087741Y0054707D01*
X0087700Y0054831D01*
X0087663Y0054958D01*
X0087629Y0055085D01*
X0087599Y0055213D01*
X0087574Y0055342D01*
X0087552Y0055471D01*
X0087534Y0055601D01*
X0087520Y0055732D01*
X0087510Y0055863D01*
X0087504Y0055995D01*
X0087502Y0056126D01*
M02*
