%
M48
M72
T01C0.01378
T02C0.01969
T03C0.03150
T04C0.03937
T05C0.05937
T06C0.08661
%
T01
X92017Y118578
X58533Y86815
X61638Y83873
X65469Y77956
X55223Y76397
X51723Y62980
X17223Y76820
X23669Y92652
X12693Y95067
X10603Y97340
X13088Y102732
X21011Y119150
X82410Y71938
X88855Y75392
T02
X19664Y15450
X19664Y20490
X19664Y25590
X19724Y30750
X19664Y40890
X113670Y139054
X115038Y132722
X111206Y112612
X98608Y107493
X96593Y93296
X115033Y89670
X114913Y74250
X96021Y71401
X77972Y33002
X73993Y28290
X85785Y20346
X90076Y24764
X111913Y20760
X99914Y19639
X104647Y53247
X112630Y40644
X81813Y44970
X76849Y42315
X58011Y24697
X60277Y18889
X47255Y38003
X77270Y69972
X53691Y88220
X47393Y84394
X42765Y87437
X36683Y70570
X23203Y66584
X13386Y11289
X53521Y105883
X34611Y126431
X30562Y138751
X20945Y131731
X53726Y138989
X79031Y123513
X88911Y127149
T03
X23134Y15514
X23134Y20515
X23134Y25616
X23134Y30717
X23134Y40919
X23134Y45919
X23134Y50986
X23134Y56222
X81057Y30146
X76895Y25683
X83070Y23132
X87366Y27294
X104667Y48369
X86439Y44905
T04
X23203Y35880
T05
X111901Y27744
X112392Y36121
T06
X91833Y56126
M30
