G75*
%MOIN*%
%OFA0B0*%
%FSLAX25Y25*%
%IPPOS*%
%LPD*%
%AMOC8*
5,1,8,0,0,1.08239X$1,22.5*
%
%ADD10C,0.00200*%
%ADD11C,0.00000*%
%ADD12R,0.03937X0.04331*%
%ADD13R,0.04331X0.03937*%
%ADD14R,0.06299X0.05906*%
%ADD15R,0.05118X0.05906*%
%ADD16R,0.03150X0.03150*%
%ADD17R,0.07087X0.07087*%
%ADD18C,0.04724*%
%ADD19R,0.05512X0.01969*%
%ADD20C,0.07087*%
%ADD21R,0.02165X0.04724*%
%ADD22R,0.03543X0.01181*%
%ADD23R,0.04043X0.01181*%
%ADD24R,0.04331X0.04331*%
%ADD25C,0.01200*%
%ADD26R,0.02569X0.02569*%
%ADD27C,0.02400*%
%ADD28R,0.03200X0.03200*%
%ADD29C,0.01600*%
%ADD30C,0.02000*%
%ADD31C,0.03200*%
%ADD32C,0.01978*%
%ADD33C,0.04394*%
%ADD34C,0.07618*%
%ADD35C,0.02559*%
%ADD36C,0.02362*%
%ADD37C,0.01000*%
D10*
X0007139Y0006452D02*
X0023169Y0006452D01*
X0023164Y0006446D02*
X0023231Y0058499D01*
X0023243Y0058575D01*
X0023260Y0058651D01*
X0023280Y0058725D01*
X0023304Y0058799D01*
X0023332Y0058871D01*
X0023363Y0058942D01*
X0023398Y0059011D01*
X0023436Y0059079D01*
X0023478Y0059144D01*
X0023523Y0059207D01*
X0023571Y0059268D01*
X0023622Y0059326D01*
X0023676Y0059381D01*
X0023733Y0059434D01*
X0023792Y0059484D01*
X0023854Y0059531D01*
X0023918Y0059574D01*
X0023984Y0059614D01*
X0024053Y0059651D01*
X0024123Y0059685D01*
X0024194Y0059714D01*
X0024267Y0059740D01*
X0024341Y0059763D01*
X0024416Y0059781D01*
X0024493Y0059796D01*
X0024569Y0059807D01*
X0024646Y0059814D01*
X0024724Y0059817D01*
X0024801Y0059816D01*
X0024879Y0059811D01*
X0024956Y0059802D01*
X0024950Y0059801D02*
X0033087Y0059799D01*
X0033062Y0059803D02*
X0033151Y0059807D01*
X0033241Y0059806D01*
X0033330Y0059802D01*
X0033419Y0059794D01*
X0033508Y0059782D01*
X0033596Y0059766D01*
X0033683Y0059747D01*
X0033769Y0059723D01*
X0033854Y0059696D01*
X0033938Y0059666D01*
X0034021Y0059631D01*
X0034102Y0059593D01*
X0034181Y0059552D01*
X0034258Y0059507D01*
X0034333Y0059458D01*
X0034406Y0059407D01*
X0034477Y0059352D01*
X0034545Y0059295D01*
X0034611Y0059234D01*
X0034674Y0059171D01*
X0034734Y0059105D01*
X0034792Y0059036D01*
X0034846Y0058965D01*
X0034897Y0058891D01*
X0034945Y0058816D01*
X0034989Y0058738D01*
X0035030Y0058659D01*
X0035068Y0058578D01*
X0035102Y0058495D01*
X0035132Y0058411D01*
X0035159Y0058326D01*
X0035182Y0058239D01*
X0035201Y0058152D01*
X0035216Y0058064D01*
X0035227Y0057975D01*
X0035235Y0057886D01*
X0035201Y0006565D01*
X0035202Y0006565D02*
X0119531Y0006905D01*
X0119534Y0006905D02*
X0119427Y0026460D01*
X0119429Y0026459D02*
X0101408Y0026325D01*
X0101537Y0026337D02*
X0101435Y0026332D01*
X0101334Y0026331D01*
X0101233Y0026334D01*
X0101132Y0026340D01*
X0101031Y0026351D01*
X0100931Y0026365D01*
X0100831Y0026383D01*
X0100732Y0026405D01*
X0100634Y0026430D01*
X0100537Y0026460D01*
X0100441Y0026493D01*
X0100347Y0026530D01*
X0100254Y0026570D01*
X0100162Y0026614D01*
X0100073Y0026661D01*
X0099985Y0026712D01*
X0099899Y0026766D01*
X0099816Y0026823D01*
X0099734Y0026883D01*
X0099655Y0026947D01*
X0099579Y0027013D01*
X0099505Y0027083D01*
X0099434Y0027155D01*
X0099365Y0027230D01*
X0099300Y0027307D01*
X0099238Y0027387D01*
X0099178Y0027469D01*
X0099122Y0027553D01*
X0099069Y0027640D01*
X0099020Y0027728D01*
X0098974Y0027818D01*
X0098931Y0027910D01*
X0098892Y0028004D01*
X0098857Y0028099D01*
X0098825Y0028195D01*
X0098797Y0028292D01*
X0098773Y0028391D01*
X0098752Y0028490D01*
X0098735Y0028590D01*
X0098722Y0028690D01*
X0098713Y0028791D01*
X0098712Y0028794D02*
X0096565Y0030344D01*
X0090592Y0030344D01*
X0078779Y0018497D01*
X0078242Y0019068D01*
X0074584Y0022726D01*
X0074450Y0023162D01*
X0074451Y0023163D02*
X0084350Y0033532D01*
X0086263Y0037895D01*
X0086296Y0048566D01*
X0096532Y0048533D01*
X0101069Y0048535D01*
X0101061Y0048532D02*
X0107339Y0048579D01*
X0107334Y0048579D02*
X0107397Y0048594D01*
X0107461Y0048606D01*
X0107526Y0048615D01*
X0107591Y0048619D01*
X0107656Y0048620D01*
X0107721Y0048617D01*
X0107786Y0048610D01*
X0107850Y0048599D01*
X0107913Y0048585D01*
X0107976Y0048567D01*
X0108037Y0048546D01*
X0108097Y0048520D01*
X0108156Y0048492D01*
X0108213Y0048460D01*
X0108267Y0048425D01*
X0108320Y0048387D01*
X0108370Y0048345D01*
X0108418Y0048301D01*
X0108463Y0048254D01*
X0108506Y0048205D01*
X0108545Y0048153D01*
X0108582Y0048099D01*
X0108615Y0048043D01*
X0108645Y0047985D01*
X0108671Y0047926D01*
X0108694Y0047865D01*
X0108714Y0047803D01*
X0108711Y0047810D02*
X0108714Y0037240D01*
X0119623Y0037292D01*
X0119623Y0037293D02*
X0119529Y0144834D01*
X0119528Y0144834D02*
X0006889Y0144555D01*
X0006890Y0144557D02*
X0007149Y0039040D01*
X0007149Y0039045D02*
X0007226Y0039052D01*
X0007303Y0039055D01*
X0007380Y0039054D01*
X0007457Y0039050D01*
X0007533Y0039042D01*
X0007610Y0039030D01*
X0007685Y0039014D01*
X0007760Y0038995D01*
X0007833Y0038972D01*
X0007906Y0038945D01*
X0007976Y0038915D01*
X0008046Y0038882D01*
X0008114Y0038845D01*
X0008179Y0038805D01*
X0008243Y0038761D01*
X0008305Y0038715D01*
X0008364Y0038666D01*
X0008420Y0038614D01*
X0008475Y0038559D01*
X0008526Y0038501D01*
X0008574Y0038441D01*
X0008620Y0038379D01*
X0008662Y0038315D01*
X0008701Y0038248D01*
X0008737Y0038180D01*
X0008769Y0038110D01*
X0008798Y0038039D01*
X0008824Y0037966D01*
X0008845Y0037892D01*
X0008864Y0037817D01*
X0008878Y0037741D01*
X0008889Y0037665D01*
X0008889Y0031065D01*
X0008891Y0030980D01*
X0008889Y0030896D01*
X0008884Y0030811D01*
X0008874Y0030727D01*
X0008861Y0030644D01*
X0008844Y0030561D01*
X0008823Y0030479D01*
X0008798Y0030398D01*
X0008769Y0030318D01*
X0008737Y0030240D01*
X0008701Y0030163D01*
X0008662Y0030088D01*
X0008619Y0030015D01*
X0008573Y0029944D01*
X0008524Y0029875D01*
X0008472Y0029809D01*
X0008416Y0029745D01*
X0008358Y0029683D01*
X0008297Y0029625D01*
X0008234Y0029569D01*
X0008167Y0029516D01*
X0008099Y0029467D01*
X0008028Y0029420D01*
X0007955Y0029377D01*
X0007880Y0029337D01*
X0007804Y0029301D01*
X0007726Y0029269D01*
X0007646Y0029240D01*
X0007566Y0029214D01*
X0007484Y0029193D01*
X0007401Y0029175D01*
X0007317Y0029161D01*
X0007233Y0029151D01*
X0007149Y0029145D01*
X0007119Y0029145D01*
X0007123Y0029141D02*
X0007162Y0006458D01*
X0007154Y0029160D02*
X0007183Y0029160D01*
D11*
X0021234Y0035880D02*
X0021236Y0035968D01*
X0021242Y0036056D01*
X0021252Y0036144D01*
X0021266Y0036232D01*
X0021283Y0036318D01*
X0021305Y0036404D01*
X0021330Y0036488D01*
X0021360Y0036572D01*
X0021392Y0036654D01*
X0021429Y0036734D01*
X0021469Y0036813D01*
X0021513Y0036890D01*
X0021560Y0036965D01*
X0021610Y0037037D01*
X0021664Y0037108D01*
X0021720Y0037175D01*
X0021780Y0037241D01*
X0021842Y0037303D01*
X0021908Y0037363D01*
X0021975Y0037419D01*
X0022046Y0037473D01*
X0022118Y0037523D01*
X0022193Y0037570D01*
X0022270Y0037614D01*
X0022349Y0037654D01*
X0022429Y0037691D01*
X0022511Y0037723D01*
X0022595Y0037753D01*
X0022679Y0037778D01*
X0022765Y0037800D01*
X0022851Y0037817D01*
X0022939Y0037831D01*
X0023027Y0037841D01*
X0023115Y0037847D01*
X0023203Y0037849D01*
X0023291Y0037847D01*
X0023379Y0037841D01*
X0023467Y0037831D01*
X0023555Y0037817D01*
X0023641Y0037800D01*
X0023727Y0037778D01*
X0023811Y0037753D01*
X0023895Y0037723D01*
X0023977Y0037691D01*
X0024057Y0037654D01*
X0024136Y0037614D01*
X0024213Y0037570D01*
X0024288Y0037523D01*
X0024360Y0037473D01*
X0024431Y0037419D01*
X0024498Y0037363D01*
X0024564Y0037303D01*
X0024626Y0037241D01*
X0024686Y0037175D01*
X0024742Y0037108D01*
X0024796Y0037037D01*
X0024846Y0036965D01*
X0024893Y0036890D01*
X0024937Y0036813D01*
X0024977Y0036734D01*
X0025014Y0036654D01*
X0025046Y0036572D01*
X0025076Y0036488D01*
X0025101Y0036404D01*
X0025123Y0036318D01*
X0025140Y0036232D01*
X0025154Y0036144D01*
X0025164Y0036056D01*
X0025170Y0035968D01*
X0025172Y0035880D01*
X0025170Y0035792D01*
X0025164Y0035704D01*
X0025154Y0035616D01*
X0025140Y0035528D01*
X0025123Y0035442D01*
X0025101Y0035356D01*
X0025076Y0035272D01*
X0025046Y0035188D01*
X0025014Y0035106D01*
X0024977Y0035026D01*
X0024937Y0034947D01*
X0024893Y0034870D01*
X0024846Y0034795D01*
X0024796Y0034723D01*
X0024742Y0034652D01*
X0024686Y0034585D01*
X0024626Y0034519D01*
X0024564Y0034457D01*
X0024498Y0034397D01*
X0024431Y0034341D01*
X0024360Y0034287D01*
X0024288Y0034237D01*
X0024213Y0034190D01*
X0024136Y0034146D01*
X0024057Y0034106D01*
X0023977Y0034069D01*
X0023895Y0034037D01*
X0023811Y0034007D01*
X0023727Y0033982D01*
X0023641Y0033960D01*
X0023555Y0033943D01*
X0023467Y0033929D01*
X0023379Y0033919D01*
X0023291Y0033913D01*
X0023203Y0033911D01*
X0023115Y0033913D01*
X0023027Y0033919D01*
X0022939Y0033929D01*
X0022851Y0033943D01*
X0022765Y0033960D01*
X0022679Y0033982D01*
X0022595Y0034007D01*
X0022511Y0034037D01*
X0022429Y0034069D01*
X0022349Y0034106D01*
X0022270Y0034146D01*
X0022193Y0034190D01*
X0022118Y0034237D01*
X0022046Y0034287D01*
X0021975Y0034341D01*
X0021908Y0034397D01*
X0021842Y0034457D01*
X0021780Y0034519D01*
X0021720Y0034585D01*
X0021664Y0034652D01*
X0021610Y0034723D01*
X0021560Y0034795D01*
X0021513Y0034870D01*
X0021469Y0034947D01*
X0021429Y0035026D01*
X0021392Y0035106D01*
X0021360Y0035188D01*
X0021330Y0035272D01*
X0021305Y0035356D01*
X0021283Y0035442D01*
X0021266Y0035528D01*
X0021252Y0035616D01*
X0021242Y0035704D01*
X0021236Y0035792D01*
X0021234Y0035880D01*
X0087502Y0056126D02*
X0087504Y0056257D01*
X0087510Y0056389D01*
X0087520Y0056520D01*
X0087534Y0056651D01*
X0087552Y0056781D01*
X0087574Y0056910D01*
X0087599Y0057039D01*
X0087629Y0057167D01*
X0087663Y0057294D01*
X0087700Y0057421D01*
X0087741Y0057545D01*
X0087786Y0057669D01*
X0087835Y0057791D01*
X0087887Y0057912D01*
X0087943Y0058030D01*
X0088003Y0058148D01*
X0088066Y0058263D01*
X0088133Y0058376D01*
X0088203Y0058488D01*
X0088276Y0058597D01*
X0088352Y0058703D01*
X0088432Y0058808D01*
X0088515Y0058910D01*
X0088601Y0059009D01*
X0088690Y0059106D01*
X0088782Y0059200D01*
X0088877Y0059291D01*
X0088974Y0059380D01*
X0089074Y0059465D01*
X0089177Y0059547D01*
X0089282Y0059626D01*
X0089389Y0059702D01*
X0089499Y0059774D01*
X0089611Y0059843D01*
X0089725Y0059909D01*
X0089840Y0059971D01*
X0089958Y0060030D01*
X0090077Y0060085D01*
X0090198Y0060137D01*
X0090321Y0060184D01*
X0090445Y0060228D01*
X0090570Y0060269D01*
X0090696Y0060305D01*
X0090824Y0060338D01*
X0090952Y0060366D01*
X0091081Y0060391D01*
X0091211Y0060412D01*
X0091341Y0060429D01*
X0091472Y0060442D01*
X0091603Y0060451D01*
X0091734Y0060456D01*
X0091866Y0060457D01*
X0091997Y0060454D01*
X0092129Y0060447D01*
X0092260Y0060436D01*
X0092390Y0060421D01*
X0092520Y0060402D01*
X0092650Y0060379D01*
X0092778Y0060353D01*
X0092906Y0060322D01*
X0093033Y0060287D01*
X0093159Y0060249D01*
X0093283Y0060207D01*
X0093407Y0060161D01*
X0093528Y0060111D01*
X0093648Y0060058D01*
X0093767Y0060001D01*
X0093884Y0059941D01*
X0093998Y0059877D01*
X0094111Y0059809D01*
X0094222Y0059738D01*
X0094331Y0059664D01*
X0094437Y0059587D01*
X0094541Y0059506D01*
X0094642Y0059423D01*
X0094741Y0059336D01*
X0094837Y0059246D01*
X0094930Y0059153D01*
X0095021Y0059058D01*
X0095108Y0058960D01*
X0095193Y0058859D01*
X0095274Y0058756D01*
X0095352Y0058650D01*
X0095427Y0058542D01*
X0095499Y0058432D01*
X0095567Y0058320D01*
X0095632Y0058206D01*
X0095693Y0058089D01*
X0095751Y0057971D01*
X0095805Y0057851D01*
X0095856Y0057730D01*
X0095903Y0057607D01*
X0095946Y0057483D01*
X0095985Y0057358D01*
X0096021Y0057231D01*
X0096052Y0057103D01*
X0096080Y0056975D01*
X0096104Y0056846D01*
X0096124Y0056716D01*
X0096140Y0056585D01*
X0096152Y0056454D01*
X0096160Y0056323D01*
X0096164Y0056192D01*
X0096164Y0056060D01*
X0096160Y0055929D01*
X0096152Y0055798D01*
X0096140Y0055667D01*
X0096124Y0055536D01*
X0096104Y0055406D01*
X0096080Y0055277D01*
X0096052Y0055149D01*
X0096021Y0055021D01*
X0095985Y0054894D01*
X0095946Y0054769D01*
X0095903Y0054645D01*
X0095856Y0054522D01*
X0095805Y0054401D01*
X0095751Y0054281D01*
X0095693Y0054163D01*
X0095632Y0054046D01*
X0095567Y0053932D01*
X0095499Y0053820D01*
X0095427Y0053710D01*
X0095352Y0053602D01*
X0095274Y0053496D01*
X0095193Y0053393D01*
X0095108Y0053292D01*
X0095021Y0053194D01*
X0094930Y0053099D01*
X0094837Y0053006D01*
X0094741Y0052916D01*
X0094642Y0052829D01*
X0094541Y0052746D01*
X0094437Y0052665D01*
X0094331Y0052588D01*
X0094222Y0052514D01*
X0094111Y0052443D01*
X0093999Y0052375D01*
X0093884Y0052311D01*
X0093767Y0052251D01*
X0093648Y0052194D01*
X0093528Y0052141D01*
X0093407Y0052091D01*
X0093283Y0052045D01*
X0093159Y0052003D01*
X0093033Y0051965D01*
X0092906Y0051930D01*
X0092778Y0051899D01*
X0092650Y0051873D01*
X0092520Y0051850D01*
X0092390Y0051831D01*
X0092260Y0051816D01*
X0092129Y0051805D01*
X0091997Y0051798D01*
X0091866Y0051795D01*
X0091734Y0051796D01*
X0091603Y0051801D01*
X0091472Y0051810D01*
X0091341Y0051823D01*
X0091211Y0051840D01*
X0091081Y0051861D01*
X0090952Y0051886D01*
X0090824Y0051914D01*
X0090696Y0051947D01*
X0090570Y0051983D01*
X0090445Y0052024D01*
X0090321Y0052068D01*
X0090198Y0052115D01*
X0090077Y0052167D01*
X0089958Y0052222D01*
X0089840Y0052281D01*
X0089725Y0052343D01*
X0089611Y0052409D01*
X0089499Y0052478D01*
X0089389Y0052550D01*
X0089282Y0052626D01*
X0089177Y0052705D01*
X0089074Y0052787D01*
X0088974Y0052872D01*
X0088877Y0052961D01*
X0088782Y0053052D01*
X0088690Y0053146D01*
X0088601Y0053243D01*
X0088515Y0053342D01*
X0088432Y0053444D01*
X0088352Y0053549D01*
X0088276Y0053655D01*
X0088203Y0053764D01*
X0088133Y0053876D01*
X0088066Y0053989D01*
X0088003Y0054104D01*
X0087943Y0054222D01*
X0087887Y0054340D01*
X0087835Y0054461D01*
X0087786Y0054583D01*
X0087741Y0054707D01*
X0087700Y0054831D01*
X0087663Y0054958D01*
X0087629Y0055085D01*
X0087599Y0055213D01*
X0087574Y0055342D01*
X0087552Y0055471D01*
X0087534Y0055601D01*
X0087520Y0055732D01*
X0087510Y0055863D01*
X0087504Y0055995D01*
X0087502Y0056126D01*
D12*
X0115063Y0089774D03*
X0115063Y0096466D03*
X0015703Y0088906D03*
X0015703Y0082214D03*
D13*
X0048082Y0055156D03*
X0048082Y0048464D03*
X0064353Y0048319D03*
X0064353Y0055012D03*
X0115003Y0074294D03*
X0115003Y0080986D03*
D14*
X0058018Y0029860D03*
D15*
X0053884Y0039703D03*
X0062152Y0039703D03*
D16*
X0081783Y0045000D03*
X0084783Y0045000D03*
X0104543Y0050260D03*
X0104543Y0053080D03*
X0021643Y0051120D03*
X0019634Y0051060D03*
X0019754Y0056220D03*
X0021643Y0056220D03*
X0021643Y0046020D03*
X0019634Y0046020D03*
X0019574Y0040920D03*
X0021643Y0040920D03*
X0021643Y0030720D03*
X0019694Y0030720D03*
X0019634Y0025620D03*
X0021643Y0025620D03*
X0021643Y0020520D03*
X0019634Y0020520D03*
X0019634Y0015420D03*
X0021643Y0015420D03*
D17*
X0111883Y0022800D03*
X0112399Y0041043D03*
D18*
X0089683Y0025140D03*
X0085521Y0020753D03*
X0074683Y0027720D03*
X0078545Y0032474D03*
D19*
X0070702Y0121117D03*
X0067202Y0121117D03*
X0067202Y0126117D03*
X0070702Y0126117D03*
X0070702Y0131117D03*
X0067202Y0131117D03*
X0067202Y0136078D03*
X0070702Y0136078D03*
X0097505Y0136078D03*
X0101005Y0136078D03*
X0101005Y0131078D03*
X0097505Y0131078D03*
X0097505Y0126078D03*
X0101005Y0126078D03*
X0101005Y0121078D03*
X0097505Y0121078D03*
D20*
X0021001Y0119136D03*
X0013082Y0124276D03*
X0021001Y0131623D03*
X0013082Y0136338D03*
X0013000Y0113742D03*
X0013082Y0102732D03*
D21*
X0041325Y0127872D03*
X0045065Y0127872D03*
X0048805Y0127872D03*
X0048805Y0137715D03*
X0041325Y0137715D03*
D22*
X0028732Y0111759D03*
X0028732Y0109790D03*
X0028732Y0107822D03*
X0028732Y0105853D03*
X0028732Y0103885D03*
X0028732Y0101916D03*
X0028732Y0099948D03*
X0028732Y0097979D03*
X0028732Y0096011D03*
X0028732Y0094042D03*
X0028732Y0092074D03*
X0028732Y0090105D03*
X0028732Y0088137D03*
X0028732Y0086168D03*
X0028732Y0084200D03*
X0028732Y0082231D03*
X0028732Y0080263D03*
X0028732Y0078294D03*
X0028732Y0076326D03*
X0028732Y0074357D03*
X0028732Y0072389D03*
X0028732Y0070420D03*
X0028732Y0068452D03*
X0028732Y0066483D03*
X0105504Y0068452D03*
X0105504Y0070420D03*
X0105504Y0072389D03*
X0105504Y0074357D03*
X0105504Y0076326D03*
X0105504Y0078294D03*
X0105504Y0080263D03*
X0105504Y0082231D03*
X0105504Y0084200D03*
X0105504Y0086168D03*
X0105504Y0088137D03*
X0105504Y0090105D03*
X0105504Y0092074D03*
X0105504Y0094042D03*
X0105504Y0096011D03*
X0105504Y0097979D03*
X0105504Y0099948D03*
X0105504Y0101916D03*
X0105504Y0103885D03*
X0105504Y0105853D03*
X0105504Y0107822D03*
X0105504Y0109790D03*
X0105504Y0111759D03*
D23*
X0105754Y0111756D03*
X0105754Y0109787D03*
X0105754Y0107819D03*
X0105754Y0105850D03*
X0105754Y0103882D03*
X0105754Y0101913D03*
X0105754Y0099945D03*
X0105754Y0097976D03*
X0105754Y0096008D03*
X0105754Y0094039D03*
X0105754Y0092071D03*
X0105754Y0090102D03*
X0105754Y0088134D03*
X0105754Y0086165D03*
X0105754Y0084197D03*
X0105754Y0082228D03*
X0105754Y0080260D03*
X0105754Y0078291D03*
X0105754Y0076323D03*
X0105754Y0074354D03*
X0105754Y0072386D03*
X0105754Y0070417D03*
X0105754Y0068449D03*
X0105755Y0066484D03*
X0028478Y0066484D03*
X0028478Y0068452D03*
X0028478Y0070421D03*
X0028478Y0072389D03*
X0028478Y0074358D03*
X0028478Y0076326D03*
X0028478Y0078295D03*
X0028478Y0080263D03*
X0028478Y0082232D03*
X0028478Y0084200D03*
X0028478Y0086169D03*
X0028478Y0088137D03*
X0028478Y0090106D03*
X0028478Y0092074D03*
X0028478Y0094043D03*
X0028478Y0096011D03*
X0028478Y0097980D03*
X0028478Y0099948D03*
X0028478Y0101917D03*
X0028478Y0103885D03*
X0028478Y0105854D03*
X0028478Y0107822D03*
X0028478Y0109791D03*
X0028478Y0111759D03*
D24*
X0115192Y0117851D03*
X0115192Y0122794D03*
D25*
X0096453Y0120996D02*
X0094365Y0120996D01*
X0093203Y0119729D01*
X0093234Y0119759D02*
X0092157Y0118578D01*
X0105542Y0101873D02*
X0073723Y0101880D01*
X0058518Y0086900D01*
X0061714Y0084016D02*
X0076183Y0099960D01*
X0076183Y0099960D01*
X0105643Y0099960D01*
X0105509Y0097913D02*
X0077713Y0097920D01*
X0077623Y0097800D02*
X0065173Y0082260D01*
X0065143Y0082200D02*
X0055391Y0076440D01*
X0065729Y0078046D02*
X0079783Y0096000D01*
X0079843Y0096000D02*
X0105223Y0096000D01*
X0101633Y0090120D02*
X0109476Y0090120D01*
X0112093Y0096760D02*
X0116323Y0096780D01*
X0115003Y0096900D02*
X0114984Y0099909D01*
X0104480Y0080224D02*
X0082448Y0080224D01*
X0082380Y0080189D02*
X0082380Y0071917D01*
X0089005Y0075431D02*
X0092518Y0078276D01*
X0092769Y0078261D02*
X0104969Y0078276D01*
X0102088Y0076320D02*
X0108936Y0076320D01*
X0104603Y0053080D02*
X0104443Y0052680D01*
X0035203Y0088020D02*
X0025513Y0088020D01*
X0025483Y0088020D02*
X0016183Y0081600D01*
X0017223Y0076820D02*
X0021143Y0080220D01*
X0021263Y0080280D02*
X0028543Y0080280D01*
X0028843Y0078300D02*
X0023143Y0078360D01*
X0013743Y0070260D01*
X0013743Y0069920D02*
X0013663Y0046740D01*
X0019648Y0045991D01*
X0020132Y0051120D02*
X0015943Y0051120D01*
X0015943Y0068740D01*
X0016003Y0068920D02*
X0024703Y0076320D01*
X0028903Y0076320D01*
X0026243Y0074400D02*
X0025511Y0074400D01*
X0018867Y0068617D01*
X0018867Y0055995D01*
X0011023Y0071520D02*
X0010883Y0090720D01*
X0010919Y0090707D02*
X0013493Y0092874D01*
X0020316Y0092874D01*
X0020943Y0093500D01*
X0021009Y0093571D02*
X0021829Y0094391D01*
X0021829Y0099750D01*
X0024022Y0099750D01*
X0023968Y0099722D02*
X0029948Y0099762D01*
X0029848Y0097902D02*
X0023728Y0097917D01*
X0023669Y0092652D01*
X0019958Y0095566D02*
X0019354Y0094962D01*
X0012663Y0094962D01*
X0010602Y0097270D02*
X0018058Y0097270D01*
X0018058Y0103850D01*
X0021205Y0103850D01*
X0021218Y0103842D02*
X0030068Y0103842D01*
X0030123Y0101838D02*
X0022217Y0101838D01*
X0022284Y0101850D02*
X0019958Y0101850D01*
X0019958Y0095566D01*
X0016123Y0090120D02*
X0028673Y0090099D01*
X0011023Y0071520D02*
X0011023Y0031500D01*
X0018914Y0025727D01*
X0049232Y0116033D02*
X0055412Y0116033D01*
X0058931Y0119552D01*
X0058931Y0123930D01*
X0061097Y0126095D01*
X0061169Y0126120D02*
X0068642Y0126120D01*
X0049232Y0116033D02*
X0045035Y0120229D01*
X0038855Y0120229D01*
X0038982Y0120205D02*
X0028869Y0120205D01*
X0023734Y0125340D01*
X0017755Y0125340D01*
X0016715Y0124300D01*
X0012946Y0124300D01*
X0045065Y0124217D02*
X0045065Y0127194D01*
D26*
X0034611Y0126431D03*
X0053726Y0138989D03*
X0079031Y0123513D03*
X0088911Y0127149D03*
X0098608Y0107493D03*
X0111206Y0112612D03*
X0096593Y0093296D03*
X0096021Y0071401D03*
X0076849Y0042315D03*
X0099914Y0019639D03*
X0111913Y0020760D03*
X0060277Y0018889D03*
X0047255Y0038003D03*
X0023203Y0066584D03*
X0036683Y0070570D03*
X0047393Y0084394D03*
X0053521Y0105883D03*
X0113670Y0139054D03*
X0013386Y0011289D03*
D27*
X0049478Y0011760D02*
X0055344Y0011807D01*
X0111973Y0012540D02*
X0112003Y0022350D01*
X0114779Y0043051D02*
X0114763Y0073678D01*
X0115030Y0132813D02*
X0108843Y0135920D01*
X0100158Y0135953D01*
D28*
X0077270Y0069972D03*
D29*
X0075574Y0071325D02*
X0079654Y0071325D01*
X0079629Y0071385D02*
X0080053Y0070363D01*
X0080835Y0069581D01*
X0081857Y0069157D01*
X0082964Y0069157D01*
X0083986Y0069581D01*
X0084768Y0070363D01*
X0085192Y0071385D01*
X0085192Y0072492D01*
X0084768Y0073514D01*
X0084580Y0073702D01*
X0084580Y0078024D01*
X0087941Y0078024D01*
X0087279Y0077749D01*
X0086497Y0076967D01*
X0086073Y0075945D01*
X0086073Y0074839D01*
X0086497Y0073816D01*
X0087279Y0073034D01*
X0088301Y0072611D01*
X0089408Y0072611D01*
X0090430Y0073034D01*
X0091212Y0073816D01*
X0091568Y0074676D01*
X0093279Y0076062D01*
X0102132Y0076073D01*
X0102132Y0067198D01*
X0102133Y0067198D01*
X0102133Y0067195D01*
X0102134Y0067194D01*
X0102134Y0065231D01*
X0103071Y0064294D01*
X0108440Y0064294D01*
X0109377Y0065231D01*
X0109377Y0067738D01*
X0109376Y0067739D01*
X0109376Y0079601D01*
X0109689Y0079525D01*
X0109911Y0079660D01*
X0111238Y0079660D01*
X0111238Y0078355D01*
X0111953Y0077640D01*
X0111238Y0076925D01*
X0111238Y0071662D01*
X0111965Y0070935D01*
X0111975Y0051721D01*
X0111629Y0052161D01*
X0109542Y0053334D01*
X0107847Y0053538D01*
X0107847Y0053884D01*
X0107718Y0054196D01*
X0107718Y0055318D01*
X0107243Y0055792D01*
X0107243Y0058737D01*
X0106847Y0059693D01*
X0100967Y0065573D01*
X0100236Y0066304D01*
X0099280Y0066700D01*
X0081446Y0066700D01*
X0080490Y0066304D01*
X0075730Y0061544D01*
X0074999Y0060813D01*
X0074603Y0059857D01*
X0074603Y0053137D01*
X0070099Y0048633D01*
X0069703Y0047677D01*
X0069703Y0037030D01*
X0063978Y0031305D01*
X0062768Y0031301D01*
X0062768Y0033476D01*
X0061831Y0034413D01*
X0054206Y0034413D01*
X0053269Y0033476D01*
X0053269Y0026245D01*
X0054206Y0025308D01*
X0054811Y0025308D01*
X0054811Y0024060D01*
X0055298Y0022884D01*
X0056198Y0021984D01*
X0057374Y0021497D01*
X0058647Y0021497D01*
X0059823Y0021984D01*
X0060723Y0022884D01*
X0061211Y0024060D01*
X0061211Y0025308D01*
X0061831Y0025308D01*
X0062624Y0026101D01*
X0064531Y0026106D01*
X0064536Y0026104D01*
X0065571Y0026104D01*
X0066526Y0026499D01*
X0074507Y0034480D01*
X0074903Y0035436D01*
X0074903Y0046083D01*
X0079407Y0050587D01*
X0079803Y0051543D01*
X0079803Y0058263D01*
X0083040Y0061500D01*
X0084294Y0061500D01*
X0084093Y0061299D01*
X0082703Y0057943D01*
X0082703Y0054310D01*
X0083409Y0052605D01*
X0082854Y0052054D01*
X0082151Y0051356D01*
X0082151Y0051355D01*
X0081775Y0050455D01*
X0081399Y0049557D01*
X0081399Y0049557D01*
X0081399Y0049556D01*
X0081396Y0048587D01*
X0081395Y0048175D01*
X0079546Y0048175D01*
X0078608Y0047238D01*
X0078608Y0042762D01*
X0079546Y0041825D01*
X0081043Y0041825D01*
X0081177Y0041770D01*
X0081375Y0041770D01*
X0081366Y0038929D01*
X0080209Y0036291D01*
X0080061Y0036135D01*
X0079334Y0036436D01*
X0077757Y0036436D01*
X0076301Y0035833D01*
X0076198Y0035730D01*
X0076160Y0035714D01*
X0075260Y0034814D01*
X0075244Y0034776D01*
X0075187Y0034719D01*
X0074583Y0033262D01*
X0074583Y0031686D01*
X0074585Y0031682D01*
X0073895Y0031682D01*
X0073431Y0031490D01*
X0073357Y0031490D01*
X0072180Y0031003D01*
X0071280Y0030103D01*
X0070793Y0028927D01*
X0070793Y0028682D01*
X0070721Y0028508D01*
X0070721Y0026932D01*
X0070874Y0026563D01*
X0070575Y0026316D01*
X0070436Y0026053D01*
X0070234Y0025841D01*
X0069989Y0025209D01*
X0069663Y0024593D01*
X0069635Y0024295D01*
X0069530Y0024024D01*
X0069546Y0023349D01*
X0069480Y0022653D01*
X0069569Y0022364D01*
X0069575Y0022075D01*
X0069684Y0021828D01*
X0069684Y0021751D01*
X0069969Y0021064D01*
X0070187Y0020353D01*
X0070339Y0020170D01*
X0070430Y0019950D01*
X0070956Y0019424D01*
X0071430Y0018851D01*
X0071640Y0018740D01*
X0074604Y0015777D01*
X0074629Y0015716D01*
X0075264Y0015083D01*
X0075879Y0014429D01*
X0075952Y0014396D01*
X0076009Y0014339D01*
X0076838Y0013997D01*
X0077656Y0013629D01*
X0077737Y0013627D01*
X0077811Y0013596D01*
X0078708Y0013597D01*
X0079605Y0013570D01*
X0079680Y0013599D01*
X0079761Y0013599D01*
X0080589Y0013943D01*
X0081427Y0014261D01*
X0081486Y0014316D01*
X0081560Y0014347D01*
X0082194Y0014982D01*
X0082847Y0015597D01*
X0082880Y0015671D01*
X0084212Y0017006D01*
X0084733Y0016791D01*
X0086309Y0016791D01*
X0087765Y0017394D01*
X0088880Y0018508D01*
X0089483Y0019965D01*
X0089483Y0021178D01*
X0090471Y0021178D01*
X0091927Y0021781D01*
X0093042Y0022896D01*
X0093645Y0024352D01*
X0093645Y0025444D01*
X0094682Y0025444D01*
X0095269Y0024267D01*
X0095269Y0024267D01*
X0097535Y0022297D01*
X0100381Y0021345D01*
X0100381Y0021345D01*
X0101530Y0021425D01*
X0106740Y0021464D01*
X0106740Y0018594D01*
X0107677Y0017657D01*
X0114575Y0017657D01*
X0114607Y0011785D01*
X0040105Y0011484D01*
X0040134Y0057068D01*
X0040186Y0057219D01*
X0040135Y0058037D01*
X0040136Y0058857D01*
X0040074Y0059005D01*
X0040039Y0059572D01*
X0038823Y0062055D01*
X0036750Y0063883D01*
X0034135Y0064779D01*
X0034135Y0064779D01*
X0032852Y0064699D01*
X0031574Y0064699D01*
X0032104Y0065230D01*
X0032104Y0085820D01*
X0033201Y0085820D01*
X0045334Y0071103D01*
X0045310Y0058725D01*
X0045254Y0058725D01*
X0044317Y0057788D01*
X0044317Y0052525D01*
X0045032Y0051810D01*
X0044317Y0051095D01*
X0044317Y0045832D01*
X0045254Y0044895D01*
X0047842Y0044895D01*
X0049725Y0042143D01*
X0049725Y0036087D01*
X0050663Y0035150D01*
X0057106Y0035150D01*
X0058018Y0036062D01*
X0058930Y0035150D01*
X0065374Y0035150D01*
X0066311Y0036087D01*
X0066311Y0043318D01*
X0065659Y0043970D01*
X0066019Y0044751D01*
X0067181Y0044751D01*
X0068119Y0045688D01*
X0068119Y0050950D01*
X0067403Y0051666D01*
X0068119Y0052381D01*
X0068119Y0057643D01*
X0067819Y0057943D01*
X0067819Y0060887D01*
X0080180Y0077524D01*
X0080180Y0073641D01*
X0080053Y0073514D01*
X0079629Y0072492D01*
X0079629Y0071385D01*
X0079808Y0072924D02*
X0076762Y0072924D01*
X0077950Y0074522D02*
X0080180Y0074522D01*
X0080180Y0076121D02*
X0079137Y0076121D01*
X0084580Y0076121D02*
X0086146Y0076121D01*
X0086204Y0074522D02*
X0084580Y0074522D01*
X0085012Y0072924D02*
X0087545Y0072924D01*
X0090164Y0072924D02*
X0102132Y0072924D01*
X0102132Y0074522D02*
X0091505Y0074522D01*
X0087249Y0077719D02*
X0084580Y0077719D01*
X0085167Y0071325D02*
X0102132Y0071325D01*
X0102132Y0069727D02*
X0084132Y0069727D01*
X0080689Y0069727D02*
X0074387Y0069727D01*
X0073199Y0068128D02*
X0102132Y0068128D01*
X0102134Y0066530D02*
X0099691Y0066530D01*
X0101609Y0064931D02*
X0102433Y0064931D01*
X0103207Y0063333D02*
X0111969Y0063333D01*
X0111968Y0064931D02*
X0109077Y0064931D01*
X0109377Y0066530D02*
X0111967Y0066530D01*
X0111966Y0068128D02*
X0109376Y0068128D01*
X0109376Y0069727D02*
X0111965Y0069727D01*
X0111575Y0071325D02*
X0109376Y0071325D01*
X0109376Y0072924D02*
X0111238Y0072924D01*
X0111238Y0074522D02*
X0109376Y0074522D01*
X0109376Y0076121D02*
X0111238Y0076121D01*
X0111873Y0077719D02*
X0109376Y0077719D01*
X0109376Y0079318D02*
X0111238Y0079318D01*
X0111495Y0090657D02*
X0110001Y0090662D01*
X0109783Y0090802D01*
X0109376Y0090711D01*
X0109376Y0113009D01*
X0108892Y0113493D01*
X0110123Y0114723D01*
X0111726Y0114723D01*
X0112364Y0114086D01*
X0114656Y0114086D01*
X0114668Y0100232D01*
X0112432Y0100232D01*
X0111495Y0099295D01*
X0111495Y0093638D01*
X0112013Y0093120D01*
X0111495Y0092602D01*
X0111495Y0090657D01*
X0111495Y0092106D02*
X0109376Y0092106D01*
X0109376Y0093705D02*
X0111495Y0093705D01*
X0111495Y0095303D02*
X0109376Y0095303D01*
X0109376Y0096902D02*
X0111495Y0096902D01*
X0111495Y0098500D02*
X0109376Y0098500D01*
X0109376Y0100099D02*
X0112299Y0100099D01*
X0114667Y0101697D02*
X0109376Y0101697D01*
X0109376Y0103296D02*
X0114665Y0103296D01*
X0114664Y0104894D02*
X0109376Y0104894D01*
X0109376Y0106493D02*
X0114662Y0106493D01*
X0114661Y0108091D02*
X0109376Y0108091D01*
X0109376Y0109690D02*
X0114660Y0109690D01*
X0114658Y0111288D02*
X0109376Y0111288D01*
X0109376Y0112887D02*
X0114657Y0112887D01*
X0111964Y0114485D02*
X0109885Y0114485D01*
X0102132Y0112880D02*
X0102132Y0110505D01*
X0102132Y0104074D01*
X0087257Y0104077D01*
X0087496Y0104176D01*
X0087575Y0104255D01*
X0087674Y0104306D01*
X0087938Y0104618D01*
X0088227Y0104907D01*
X0088270Y0105010D01*
X0094929Y0112880D01*
X0102132Y0112880D01*
X0102132Y0111288D02*
X0093582Y0111288D01*
X0092229Y0109690D02*
X0102132Y0109690D01*
X0102132Y0108091D02*
X0090877Y0108091D01*
X0089524Y0106493D02*
X0102132Y0106493D01*
X0102132Y0104894D02*
X0088214Y0104894D01*
X0076103Y0116084D02*
X0058574Y0116084D01*
X0058281Y0115790D02*
X0059842Y0117352D01*
X0061131Y0118641D01*
X0061131Y0123018D01*
X0062033Y0123920D01*
X0063397Y0123920D01*
X0063699Y0123617D01*
X0062846Y0122764D01*
X0062846Y0119470D01*
X0063783Y0118533D01*
X0074121Y0118533D01*
X0075058Y0119470D01*
X0075058Y0122764D01*
X0074205Y0123617D01*
X0075058Y0124470D01*
X0075058Y0127764D01*
X0074375Y0128447D01*
X0079909Y0128447D01*
X0081492Y0126864D01*
X0081492Y0121472D01*
X0075810Y0115790D01*
X0058281Y0115790D01*
X0060173Y0117682D02*
X0077702Y0117682D01*
X0079301Y0119281D02*
X0074868Y0119281D01*
X0075058Y0120879D02*
X0080899Y0120879D01*
X0081492Y0122478D02*
X0075058Y0122478D01*
X0074664Y0124076D02*
X0081492Y0124076D01*
X0081492Y0125675D02*
X0075058Y0125675D01*
X0075058Y0127273D02*
X0081083Y0127273D01*
X0085239Y0130470D02*
X0088643Y0130470D01*
X0090241Y0128872D02*
X0086520Y0128872D01*
X0086692Y0128458D02*
X0086296Y0129414D01*
X0083190Y0132520D01*
X0082458Y0133251D01*
X0081503Y0133647D01*
X0074274Y0133647D01*
X0075058Y0134431D01*
X0075058Y0136780D01*
X0082333Y0136780D01*
X0090356Y0128757D01*
X0091312Y0128361D01*
X0093786Y0128361D01*
X0093753Y0128328D01*
X0093742Y0128324D01*
X0086692Y0121273D01*
X0086692Y0128458D01*
X0086692Y0127273D02*
X0092692Y0127273D01*
X0091093Y0125675D02*
X0086692Y0125675D01*
X0086692Y0124076D02*
X0089495Y0124076D01*
X0087896Y0122478D02*
X0086692Y0122478D01*
X0087044Y0132069D02*
X0083641Y0132069D01*
X0085446Y0133667D02*
X0074294Y0133667D01*
X0075058Y0135266D02*
X0083847Y0135266D01*
X0088004Y0138463D02*
X0093887Y0138463D01*
X0094087Y0138662D02*
X0093149Y0137725D01*
X0093149Y0134431D01*
X0094002Y0133578D01*
X0093985Y0133561D01*
X0092906Y0133561D01*
X0086615Y0139853D01*
X0114633Y0139922D01*
X0114636Y0136144D01*
X0110508Y0138217D01*
X0110438Y0138288D01*
X0110014Y0138465D01*
X0109602Y0138672D01*
X0109503Y0138679D01*
X0109411Y0138718D01*
X0108950Y0138720D01*
X0108491Y0138753D01*
X0108396Y0138722D01*
X0099612Y0138756D01*
X0099384Y0138662D01*
X0094087Y0138662D01*
X0093149Y0136864D02*
X0089603Y0136864D01*
X0091201Y0135266D02*
X0093149Y0135266D01*
X0092800Y0133667D02*
X0093913Y0133667D01*
X0110020Y0138463D02*
X0114634Y0138463D01*
X0114636Y0136864D02*
X0113202Y0136864D01*
X0067834Y0110590D02*
X0054252Y0097008D01*
X0051062Y0097008D01*
X0050791Y0097121D01*
X0047736Y0097121D01*
X0046780Y0096725D01*
X0041352Y0091297D01*
X0040621Y0090565D01*
X0040225Y0089610D01*
X0040225Y0089423D01*
X0040052Y0089250D01*
X0039565Y0088073D01*
X0039565Y0086800D01*
X0040001Y0085746D01*
X0037403Y0088898D01*
X0037403Y0088931D01*
X0037247Y0089087D01*
X0036830Y0089593D01*
X0036641Y0089694D01*
X0036114Y0090220D01*
X0032104Y0090220D01*
X0032104Y0098815D01*
X0032154Y0098865D01*
X0032141Y0100688D01*
X0032112Y0100716D01*
X0032323Y0100927D01*
X0032323Y0102750D01*
X0032205Y0102868D01*
X0032268Y0102930D01*
X0032268Y0104753D01*
X0032104Y0104917D01*
X0032104Y0113012D01*
X0031167Y0113949D01*
X0031163Y0113949D01*
X0031162Y0113950D01*
X0027367Y0113950D01*
X0028203Y0114787D01*
X0030586Y0114787D01*
X0030694Y0114742D01*
X0036546Y0114774D01*
X0036623Y0114742D01*
X0042876Y0114742D01*
X0045900Y0111718D01*
X0046631Y0110986D01*
X0047586Y0110590D01*
X0067834Y0110590D01*
X0066933Y0109690D02*
X0032104Y0109690D01*
X0032104Y0111288D02*
X0046329Y0111288D01*
X0044730Y0112887D02*
X0032104Y0112887D01*
X0027902Y0114485D02*
X0043132Y0114485D01*
X0049095Y0119281D02*
X0055548Y0119281D01*
X0054501Y0118233D02*
X0050143Y0118233D01*
X0045947Y0122429D01*
X0037943Y0122429D01*
X0037919Y0122405D01*
X0029780Y0122405D01*
X0024645Y0127540D01*
X0024192Y0127540D01*
X0025362Y0128710D01*
X0026145Y0130600D01*
X0026145Y0131629D01*
X0026648Y0131125D01*
X0027379Y0130394D01*
X0028335Y0129998D01*
X0038008Y0129998D01*
X0038642Y0129364D01*
X0038642Y0124848D01*
X0039580Y0123910D01*
X0043070Y0123910D01*
X0043195Y0124035D01*
X0043320Y0123910D01*
X0046811Y0123910D01*
X0046935Y0124035D01*
X0047060Y0123910D01*
X0050551Y0123910D01*
X0050587Y0123946D01*
X0054928Y0123946D01*
X0055884Y0124342D01*
X0056615Y0125074D01*
X0059780Y0128239D01*
X0060176Y0129194D01*
X0060176Y0134035D01*
X0062846Y0136705D01*
X0062846Y0134431D01*
X0063680Y0133598D01*
X0062846Y0132764D01*
X0062846Y0129470D01*
X0063699Y0128617D01*
X0063402Y0128320D01*
X0060258Y0128320D01*
X0060233Y0128295D01*
X0060185Y0128295D01*
X0056731Y0124841D01*
X0056731Y0120463D01*
X0054501Y0118233D01*
X0056731Y0120879D02*
X0047497Y0120879D01*
X0039414Y0124076D02*
X0028108Y0124076D01*
X0026510Y0125675D02*
X0038642Y0125675D01*
X0038642Y0127273D02*
X0024911Y0127273D01*
X0025429Y0128872D02*
X0038642Y0128872D01*
X0042840Y0132520D02*
X0041608Y0133753D01*
X0043070Y0133753D01*
X0044008Y0134690D01*
X0044008Y0139747D01*
X0046123Y0139752D01*
X0046123Y0134690D01*
X0047060Y0133753D01*
X0050551Y0133753D01*
X0051488Y0134690D01*
X0051488Y0139766D01*
X0058571Y0139783D01*
X0056103Y0137316D01*
X0055372Y0136584D01*
X0054976Y0135629D01*
X0054976Y0130788D01*
X0053334Y0129146D01*
X0051488Y0129146D01*
X0051488Y0130897D01*
X0050551Y0131835D01*
X0047060Y0131835D01*
X0046935Y0131710D01*
X0046811Y0131835D01*
X0043526Y0131835D01*
X0042840Y0132520D01*
X0043291Y0132069D02*
X0054976Y0132069D01*
X0054976Y0133667D02*
X0041693Y0133667D01*
X0044008Y0135266D02*
X0046123Y0135266D01*
X0046123Y0136864D02*
X0044008Y0136864D01*
X0044008Y0138463D02*
X0046123Y0138463D01*
X0051488Y0138463D02*
X0057250Y0138463D01*
X0055652Y0136864D02*
X0051488Y0136864D01*
X0051488Y0135266D02*
X0054976Y0135266D01*
X0054658Y0130470D02*
X0051488Y0130470D01*
X0057216Y0125675D02*
X0057565Y0125675D01*
X0056731Y0124076D02*
X0055242Y0124076D01*
X0056731Y0122478D02*
X0029707Y0122478D01*
X0027303Y0130470D02*
X0026091Y0130470D01*
X0032104Y0108091D02*
X0065335Y0108091D01*
X0063736Y0106493D02*
X0032104Y0106493D01*
X0032126Y0104894D02*
X0062138Y0104894D01*
X0060539Y0103296D02*
X0032268Y0103296D01*
X0032323Y0101697D02*
X0058940Y0101697D01*
X0057342Y0100099D02*
X0032145Y0100099D01*
X0032104Y0098500D02*
X0055743Y0098500D01*
X0053648Y0091808D02*
X0049869Y0091808D01*
X0049597Y0091921D01*
X0049330Y0091921D01*
X0045823Y0088414D01*
X0045965Y0088073D01*
X0045965Y0086800D01*
X0045477Y0085624D01*
X0044577Y0084724D01*
X0043401Y0084237D01*
X0042128Y0084237D01*
X0040952Y0084724D01*
X0040337Y0085339D01*
X0049054Y0074765D01*
X0052932Y0074755D01*
X0052865Y0074821D01*
X0052442Y0075843D01*
X0052442Y0076950D01*
X0052865Y0077972D01*
X0053648Y0078754D01*
X0054670Y0079178D01*
X0055699Y0079178D01*
X0059912Y0081666D01*
X0059280Y0082298D01*
X0058857Y0083320D01*
X0058857Y0084034D01*
X0057979Y0084034D01*
X0056957Y0084457D01*
X0056175Y0085239D01*
X0055900Y0085903D01*
X0055504Y0085507D01*
X0054328Y0085020D01*
X0053055Y0085020D01*
X0051879Y0085507D01*
X0050979Y0086407D01*
X0050491Y0087583D01*
X0050491Y0088857D01*
X0050979Y0090033D01*
X0051879Y0090933D01*
X0053055Y0091420D01*
X0053257Y0091420D01*
X0053648Y0091808D01*
X0051453Y0090508D02*
X0047917Y0090508D01*
X0046318Y0088909D02*
X0050513Y0088909D01*
X0050604Y0087311D02*
X0045965Y0087311D01*
X0045514Y0085712D02*
X0051674Y0085712D01*
X0055709Y0085712D02*
X0055979Y0085712D01*
X0057787Y0084114D02*
X0041347Y0084114D01*
X0042665Y0082515D02*
X0059190Y0082515D01*
X0058644Y0080917D02*
X0043983Y0080917D01*
X0045301Y0079318D02*
X0055937Y0079318D01*
X0052761Y0077719D02*
X0046618Y0077719D01*
X0047936Y0076121D02*
X0052442Y0076121D01*
X0045150Y0071325D02*
X0032104Y0071325D01*
X0032104Y0069727D02*
X0045331Y0069727D01*
X0045328Y0068128D02*
X0032104Y0068128D01*
X0032104Y0066530D02*
X0045325Y0066530D01*
X0045322Y0064931D02*
X0031806Y0064931D01*
X0036750Y0063883D02*
X0036750Y0063883D01*
X0037374Y0063333D02*
X0045319Y0063333D01*
X0045316Y0061734D02*
X0038980Y0061734D01*
X0038823Y0062055D02*
X0038823Y0062055D01*
X0039763Y0060136D02*
X0045313Y0060136D01*
X0045067Y0058537D02*
X0040135Y0058537D01*
X0040039Y0059572D02*
X0040039Y0059572D01*
X0040134Y0056939D02*
X0044317Y0056939D01*
X0044317Y0055340D02*
X0040133Y0055340D01*
X0040132Y0053742D02*
X0044317Y0053742D01*
X0044699Y0052143D02*
X0040131Y0052143D01*
X0040130Y0050545D02*
X0044317Y0050545D01*
X0044317Y0048946D02*
X0040129Y0048946D01*
X0040128Y0047348D02*
X0044317Y0047348D01*
X0044400Y0045749D02*
X0040127Y0045749D01*
X0040126Y0044151D02*
X0048352Y0044151D01*
X0049446Y0042552D02*
X0040125Y0042552D01*
X0040124Y0040954D02*
X0049725Y0040954D01*
X0049725Y0039355D02*
X0040123Y0039355D01*
X0040122Y0037757D02*
X0049725Y0037757D01*
X0049725Y0036158D02*
X0040121Y0036158D01*
X0040120Y0034560D02*
X0067233Y0034560D01*
X0066311Y0036158D02*
X0068831Y0036158D01*
X0069703Y0037757D02*
X0066311Y0037757D01*
X0066311Y0039355D02*
X0069703Y0039355D01*
X0069703Y0040954D02*
X0066311Y0040954D01*
X0066311Y0042552D02*
X0069703Y0042552D01*
X0069703Y0044151D02*
X0065743Y0044151D01*
X0068119Y0045749D02*
X0069703Y0045749D01*
X0069703Y0047348D02*
X0068119Y0047348D01*
X0068119Y0048946D02*
X0070412Y0048946D01*
X0072011Y0050545D02*
X0068119Y0050545D01*
X0067881Y0052143D02*
X0073609Y0052143D01*
X0074603Y0053742D02*
X0068119Y0053742D01*
X0068119Y0055340D02*
X0074603Y0055340D01*
X0074603Y0056939D02*
X0068119Y0056939D01*
X0067819Y0058537D02*
X0074603Y0058537D01*
X0074719Y0060136D02*
X0067819Y0060136D01*
X0068448Y0061734D02*
X0075921Y0061734D01*
X0077519Y0063333D02*
X0069636Y0063333D01*
X0070824Y0064931D02*
X0079118Y0064931D01*
X0081035Y0066530D02*
X0072011Y0066530D01*
X0080077Y0058537D02*
X0082949Y0058537D01*
X0082703Y0056939D02*
X0079803Y0056939D01*
X0079803Y0055340D02*
X0082703Y0055340D01*
X0082938Y0053742D02*
X0079803Y0053742D01*
X0079803Y0052143D02*
X0082944Y0052143D01*
X0082151Y0051355D02*
X0082151Y0051355D01*
X0081812Y0050545D02*
X0079365Y0050545D01*
X0077766Y0048946D02*
X0081397Y0048946D01*
X0078719Y0047348D02*
X0076168Y0047348D01*
X0074903Y0045749D02*
X0078608Y0045749D01*
X0078608Y0044151D02*
X0074903Y0044151D01*
X0074903Y0042552D02*
X0078818Y0042552D01*
X0081372Y0040954D02*
X0074903Y0040954D01*
X0074903Y0039355D02*
X0081367Y0039355D01*
X0080852Y0037757D02*
X0074903Y0037757D01*
X0074903Y0036158D02*
X0077086Y0036158D01*
X0075121Y0034560D02*
X0074540Y0034560D01*
X0074583Y0032961D02*
X0072988Y0032961D01*
X0073049Y0031363D02*
X0071390Y0031363D01*
X0071140Y0029764D02*
X0069791Y0029764D01*
X0070721Y0028166D02*
X0068193Y0028166D01*
X0066594Y0026567D02*
X0070872Y0026567D01*
X0069862Y0024969D02*
X0061211Y0024969D01*
X0060925Y0023370D02*
X0069545Y0023370D01*
X0069684Y0021772D02*
X0059311Y0021772D01*
X0056710Y0021772D02*
X0040111Y0021772D01*
X0040112Y0023370D02*
X0055096Y0023370D01*
X0054811Y0024969D02*
X0040113Y0024969D01*
X0040114Y0026567D02*
X0053269Y0026567D01*
X0053269Y0028166D02*
X0040115Y0028166D01*
X0040116Y0029764D02*
X0053269Y0029764D01*
X0053269Y0031363D02*
X0040118Y0031363D01*
X0040119Y0032961D02*
X0053269Y0032961D01*
X0054478Y0039448D02*
X0048502Y0048180D01*
X0061429Y0040520D02*
X0064690Y0047604D01*
X0065634Y0032961D02*
X0062768Y0032961D01*
X0062768Y0031363D02*
X0064036Y0031363D01*
X0070336Y0020173D02*
X0040110Y0020173D01*
X0040109Y0018575D02*
X0071806Y0018575D01*
X0073404Y0016976D02*
X0040108Y0016976D01*
X0040107Y0015378D02*
X0074968Y0015378D01*
X0077323Y0013779D02*
X0040106Y0013779D01*
X0040105Y0012181D02*
X0114605Y0012181D01*
X0114596Y0013779D02*
X0080194Y0013779D01*
X0082614Y0015378D02*
X0114587Y0015378D01*
X0114579Y0016976D02*
X0086756Y0016976D01*
X0084285Y0016976D02*
X0084182Y0016976D01*
X0088907Y0018575D02*
X0106759Y0018575D01*
X0106740Y0020173D02*
X0089483Y0020173D01*
X0091905Y0021772D02*
X0099106Y0021772D01*
X0097535Y0022297D02*
X0097535Y0022297D01*
X0096301Y0023370D02*
X0093239Y0023370D01*
X0093645Y0024969D02*
X0094919Y0024969D01*
X0106393Y0021360D02*
X0111741Y0021335D01*
X0080083Y0036158D02*
X0080005Y0036158D01*
X0081676Y0060136D02*
X0083611Y0060136D01*
X0104806Y0061734D02*
X0111969Y0061734D01*
X0111970Y0060136D02*
X0106404Y0060136D01*
X0107243Y0058537D02*
X0111971Y0058537D01*
X0111972Y0056939D02*
X0107243Y0056939D01*
X0107695Y0055340D02*
X0111973Y0055340D01*
X0111974Y0053742D02*
X0107847Y0053742D01*
X0109542Y0053334D02*
X0109542Y0053334D01*
X0111629Y0052161D02*
X0111629Y0052161D01*
X0111629Y0052161D01*
X0111643Y0052143D02*
X0111975Y0052143D01*
X0102132Y0090434D02*
X0100931Y0090511D01*
X0100860Y0090540D01*
X0100471Y0090540D01*
X0099722Y0090587D01*
X0099668Y0090540D01*
X0078815Y0090540D01*
X0078656Y0090584D01*
X0078303Y0090540D01*
X0080855Y0093800D01*
X0102132Y0093800D01*
X0102132Y0090434D01*
X0102132Y0090508D02*
X0100980Y0090508D01*
X0102132Y0092106D02*
X0079529Y0092106D01*
X0080780Y0093705D02*
X0102132Y0093705D01*
X0063036Y0119281D02*
X0061131Y0119281D01*
X0061131Y0120879D02*
X0062846Y0120879D01*
X0062846Y0122478D02*
X0061131Y0122478D01*
X0059164Y0127273D02*
X0058815Y0127273D01*
X0060042Y0128872D02*
X0063445Y0128872D01*
X0062846Y0130470D02*
X0060176Y0130470D01*
X0060176Y0132069D02*
X0062846Y0132069D01*
X0063610Y0133667D02*
X0060176Y0133667D01*
X0061407Y0135266D02*
X0062846Y0135266D01*
X0047207Y0096902D02*
X0032104Y0096902D01*
X0032104Y0095303D02*
X0045359Y0095303D01*
X0043760Y0093705D02*
X0032104Y0093705D01*
X0032104Y0092106D02*
X0042162Y0092106D01*
X0040597Y0090508D02*
X0032104Y0090508D01*
X0032104Y0085712D02*
X0033290Y0085712D01*
X0032104Y0084114D02*
X0034608Y0084114D01*
X0035926Y0082515D02*
X0032104Y0082515D01*
X0032104Y0080917D02*
X0037244Y0080917D01*
X0038562Y0079318D02*
X0032104Y0079318D01*
X0032104Y0077719D02*
X0039879Y0077719D01*
X0041197Y0076121D02*
X0032104Y0076121D01*
X0032104Y0074522D02*
X0042515Y0074522D01*
X0043833Y0072924D02*
X0032104Y0072924D01*
X0024856Y0070914D02*
X0024856Y0069168D01*
X0024856Y0065231D01*
X0025386Y0064701D01*
X0025306Y0064701D01*
X0024364Y0064832D01*
X0024364Y0064832D01*
X0021889Y0064188D01*
X0021889Y0064188D01*
X0021067Y0063567D01*
X0021067Y0067616D01*
X0024856Y0070914D01*
X0024856Y0069727D02*
X0023492Y0069727D01*
X0024856Y0068128D02*
X0021656Y0068128D01*
X0021067Y0066530D02*
X0024856Y0066530D01*
X0025155Y0064931D02*
X0021067Y0064931D01*
X0038712Y0087311D02*
X0039565Y0087311D01*
X0039911Y0088909D02*
X0037403Y0088909D01*
X0029750Y0028144D02*
X0028092Y0028146D01*
X0028065Y0007436D01*
X0028069Y0007426D01*
X0028069Y0006385D01*
X0029750Y0006431D01*
X0029750Y0028144D01*
X0029750Y0026567D02*
X0028090Y0026567D01*
X0028088Y0024969D02*
X0029750Y0024969D01*
X0029750Y0023370D02*
X0028086Y0023370D01*
X0028084Y0021772D02*
X0029750Y0021772D01*
X0029750Y0020173D02*
X0028081Y0020173D01*
X0028079Y0018575D02*
X0029750Y0018575D01*
X0029750Y0016976D02*
X0028077Y0016976D01*
X0028075Y0015378D02*
X0029750Y0015378D01*
X0029750Y0013779D02*
X0028073Y0013779D01*
X0028071Y0012181D02*
X0029750Y0012181D01*
X0029750Y0010582D02*
X0028069Y0010582D01*
X0028067Y0008984D02*
X0029750Y0008984D01*
X0029750Y0007385D02*
X0028069Y0007385D01*
X0018270Y0011352D02*
X0016270Y0011352D01*
X0016270Y0013236D01*
X0015333Y0014173D01*
X0012049Y0014173D01*
X0012028Y0026433D01*
X0012903Y0027398D01*
X0016459Y0024797D01*
X0016459Y0023382D01*
X0016771Y0023070D01*
X0016459Y0022758D01*
X0016459Y0018282D01*
X0016771Y0017970D01*
X0016459Y0017658D01*
X0016459Y0013182D01*
X0017396Y0012245D01*
X0018271Y0012245D01*
X0018270Y0011352D01*
X0012054Y0011352D01*
X0012028Y0026433D01*
X0012903Y0027398D01*
X0016459Y0024797D01*
X0016459Y0023382D01*
X0016771Y0023070D01*
X0016459Y0022758D01*
X0016459Y0018282D01*
X0016771Y0017970D01*
X0016459Y0017658D01*
X0016459Y0013182D01*
X0017396Y0012245D01*
X0018271Y0012245D01*
X0018270Y0011352D01*
X0018271Y0012181D02*
X0016270Y0012181D01*
X0016459Y0013779D02*
X0015727Y0013779D01*
X0016459Y0013779D02*
X0012050Y0013779D01*
X0012052Y0012181D02*
X0018271Y0012181D01*
X0016459Y0015378D02*
X0012047Y0015378D01*
X0016459Y0015378D01*
X0016459Y0016976D02*
X0012044Y0016976D01*
X0016459Y0016976D01*
X0016459Y0018575D02*
X0012041Y0018575D01*
X0016459Y0018575D01*
X0016459Y0020173D02*
X0012039Y0020173D01*
X0016459Y0020173D01*
X0016459Y0021772D02*
X0012036Y0021772D01*
X0016459Y0021772D01*
X0016471Y0023370D02*
X0012033Y0023370D01*
X0016471Y0023370D01*
X0016224Y0024969D02*
X0012031Y0024969D01*
X0016224Y0024969D01*
X0014039Y0026567D02*
X0012150Y0026567D01*
X0014039Y0026567D01*
D30*
X0047902Y0054360D02*
X0047936Y0072229D01*
X0047816Y0072169D02*
X0066023Y0072120D01*
X0066133Y0072120D02*
X0078463Y0087940D01*
X0100343Y0087940D01*
X0101003Y0082260D02*
X0080459Y0082260D01*
X0065292Y0061845D01*
X0065219Y0061691D02*
X0065219Y0054595D01*
X0065020Y0061569D02*
X0063712Y0062878D01*
X0051463Y0062878D01*
X0047726Y0072289D02*
X0035153Y0087540D01*
X0042825Y0087697D02*
X0042825Y0089092D01*
X0048253Y0094521D01*
X0050274Y0094521D01*
X0050386Y0094408D01*
X0055329Y0094408D01*
X0070595Y0109674D01*
X0078769Y0109674D01*
X0095215Y0126120D01*
X0098329Y0126120D01*
X0100643Y0130994D02*
X0106927Y0130973D01*
X0107021Y0130959D02*
X0108605Y0129375D01*
X0108605Y0125546D01*
X0111134Y0123017D01*
X0115034Y0123017D01*
X0114831Y0117323D02*
X0109046Y0117323D01*
X0107133Y0115411D01*
X0107023Y0115480D02*
X0093723Y0115480D01*
X0086023Y0106380D01*
X0072023Y0106380D01*
X0053683Y0088180D01*
X0048104Y0113190D02*
X0076887Y0113190D01*
X0084092Y0120395D01*
X0084092Y0127941D01*
X0080986Y0131047D01*
X0073396Y0131047D01*
X0083410Y0139380D02*
X0061845Y0139380D01*
X0057576Y0135112D01*
X0057576Y0129711D01*
X0054411Y0126546D01*
X0048777Y0126546D01*
X0041367Y0128469D02*
X0041367Y0130316D01*
X0039085Y0132598D01*
X0028852Y0132598D01*
X0023383Y0138067D01*
X0014828Y0138067D01*
X0013041Y0136280D01*
X0030489Y0138665D02*
X0041016Y0138730D01*
X0063413Y0120940D02*
X0069013Y0120940D01*
X0069433Y0120940D02*
X0069433Y0117300D01*
X0048104Y0113190D02*
X0043953Y0117342D01*
X0037140Y0117342D01*
X0037450Y0117379D02*
X0031198Y0117345D01*
X0031277Y0117387D02*
X0027127Y0117387D01*
X0022389Y0112649D01*
X0013320Y0112649D01*
X0077203Y0059340D02*
X0077203Y0052060D01*
X0072303Y0047160D01*
X0072303Y0035953D01*
X0065054Y0028704D01*
X0065046Y0028707D02*
X0056849Y0028685D01*
X0058087Y0029784D02*
X0057969Y0024701D01*
X0077203Y0059340D02*
X0081963Y0064100D01*
X0098763Y0064100D01*
X0104643Y0058220D01*
X0104643Y0053180D01*
X0109430Y0082260D02*
X0114763Y0082260D01*
X0115965Y0088040D02*
X0109435Y0088065D01*
X0100974Y0130961D02*
X0091829Y0130961D01*
X0083410Y0139380D01*
D31*
X0115038Y0132722D03*
X0115033Y0089670D03*
X0114913Y0074250D03*
X0104647Y0053247D03*
X0112630Y0040644D03*
X0090076Y0024764D03*
X0085785Y0020346D03*
X0073993Y0028290D03*
X0077972Y0033002D03*
X0081813Y0044970D03*
X0058011Y0024697D03*
X0019664Y0025590D03*
X0019724Y0030750D03*
X0019664Y0040890D03*
X0019664Y0020490D03*
X0019664Y0015450D03*
X0042765Y0087437D03*
X0053691Y0088220D03*
X0020945Y0131731D03*
X0030562Y0138751D03*
D32*
X0021011Y0119150D03*
X0013088Y0102732D03*
X0010603Y0097340D03*
X0012693Y0095067D03*
X0023669Y0092652D03*
X0017223Y0076820D03*
X0092017Y0118578D03*
D33*
X0023134Y0056222D03*
X0023134Y0050986D03*
X0023134Y0045919D03*
X0023134Y0040919D03*
X0023134Y0030717D03*
X0023134Y0025616D03*
X0023134Y0020515D03*
X0023134Y0015514D03*
X0076895Y0025683D03*
X0081057Y0030146D03*
X0087366Y0027294D03*
X0083070Y0023132D03*
X0086439Y0044905D03*
X0104667Y0048369D03*
D34*
X0112392Y0036121D03*
X0111901Y0027744D03*
D35*
X0051723Y0062980D03*
D36*
X0055223Y0076397D03*
X0061638Y0083873D03*
X0058533Y0086815D03*
X0065469Y0077956D03*
X0082410Y0071938D03*
X0088855Y0075392D03*
D37*
X0101062Y0081775D02*
X0103825Y0082154D01*
X0103674Y0082325D02*
X0101098Y0082742D01*
X0100523Y0087450D02*
X0103718Y0088040D01*
X0103616Y0088236D02*
X0100457Y0088437D01*
X0107900Y0088233D02*
X0109388Y0088563D01*
X0109357Y0087568D02*
X0107958Y0088031D01*
X0109355Y0082747D02*
X0107961Y0082352D01*
X0107897Y0082124D02*
X0109342Y0081771D01*
M02*
